<svg width="26" height="36" viewBox="0 0 26 36" fill="none" xmlns="http://www.w3.org/2000/svg">
<path fill-rule="evenodd" clip-rule="evenodd" d="M24.395 27.8122C24.395 28.4253 24.1055 29.0013 23.6142 29.3664C23.1213 29.7331 22.4859 29.843 21.8996 29.6663C21.3117 29.4882 20.8441 29.0443 20.6378 28.4668C20.4299 27.8909 20.5086 27.2496 20.8471 26.7404L18.9335 24.7853L14.0615 24.7838V23.9391L18.9677 23.9406C19.1711 23.9406 19.3656 24.0237 19.5081 24.1677L21.4543 26.157C22.0525 25.7947 22.7993 25.7829 23.4094 26.1258C24.018 26.4687 24.395 27.113 24.395 27.8122ZM14.0616 11.2215H18.9336L20.8471 9.26645C20.3008 8.44551 20.4612 7.34403 21.2168 6.71162C21.9739 6.07921 23.0843 6.11634 23.7968 6.7992C24.5079 7.48208 24.5925 8.59097 23.9913 9.37331C23.3901 10.1556 22.2975 10.3605 21.4543 9.84835L19.5081 11.8376C19.3656 11.9816 19.1711 12.0647 18.9677 12.0647H14.0615V11.22L14.0616 11.2215ZM14.0616 17.5825L22.1357 17.581C22.3495 16.6161 23.255 15.9674 24.2378 16.0757C25.2205 16.1841 25.9628 17.014 25.9613 18.0026C25.9613 18.9898 25.219 19.8196 24.2378 19.928C23.2565 20.0364 22.3495 19.3891 22.1357 18.4242H14.0616V17.5795V17.5825ZM19.4383 34.0679C19.4383 33.1609 18.8089 32.3756 17.9241 32.1781V29.4184C17.9241 29.074 17.645 28.7935 17.3006 28.7935H14.06V29.6382H17.0809V32.1781C16.3535 32.3414 15.7849 32.9056 15.6157 33.63C15.4479 34.3559 15.7107 35.113 16.2911 35.5791C16.8715 36.0453 17.6687 36.1358 18.3397 35.8137C19.0107 35.4915 19.4383 34.8131 19.4383 34.0679ZM14.0616 6.367V7.2117H17.3022H17.3007C17.6451 7.2117 17.9257 6.93261 17.9257 6.58822V3.82706C18.8876 3.6133 19.5349 2.70776 19.4265 1.72652C19.3182 0.746756 18.4898 0.0045166 17.5026 0.0045166C16.5169 0.0045166 15.6886 0.746756 15.5802 1.72652C15.4718 2.70776 16.1191 3.6133 17.081 3.82706V6.36704L14.0616 6.367ZM13.1472 23.9256V12.0793C11.1312 12.2247 9.32746 13.3841 8.35952 15.1566C7.39161 16.9306 7.39161 19.0744 8.35952 20.8484C9.32742 22.6209 11.1311 23.7801 13.1472 23.9256ZM13.1472 9.11767C10.0743 9.26464 7.29543 10.9896 5.79886 13.6781C4.30397 16.3665 4.30397 19.6369 5.79886 22.3268C7.29524 25.0152 10.0742 26.7401 13.1472 26.8872V31.5338H11.673L11.1535 28.8142V28.8128C11.1208 28.645 10.9887 28.5129 10.8209 28.4788C9.86197 28.2264 8.94157 27.8449 8.0865 27.3416C7.94102 27.2555 7.75843 27.2659 7.62332 27.3654L5.34313 28.9122L2.66064 26.2297L4.21641 23.9362C4.30697 23.8011 4.31291 23.6274 4.23126 23.4864C3.72357 22.6239 3.33906 21.6961 3.08672 20.7267C3.04664 20.5693 2.91897 20.4491 2.75864 20.4194L0.0390625 19.8998V16.1069L2.75864 15.5873V15.5858C2.92788 15.5547 3.06 15.4225 3.09266 15.2548C3.34502 14.2958 3.72803 13.3754 4.23127 12.5189C4.31589 12.3749 4.30698 12.1923 4.20603 12.0572L2.65919 9.77703L5.34168 7.09453L7.63525 8.65031H7.63673C7.77034 8.74086 7.94551 8.7468 8.08506 8.66515C8.94754 8.15747 9.87683 7.77295 10.8447 7.52061C11.0021 7.48053 11.1223 7.35286 11.1535 7.19254L11.6731 4.47296H13.1472L13.1472 9.11767ZM19.3553 14.4024C19.5884 14.4024 19.7784 14.5909 19.7784 14.824C19.7784 15.0571 19.5884 15.2456 19.3553 15.2456H14.9584C14.7253 15.2456 14.5353 15.0571 14.5353 14.824C14.5353 14.5909 14.7253 14.4024 14.9584 14.4024H19.3553ZM19.3553 20.7634V20.7619C19.5884 20.7619 19.7784 20.9519 19.7784 21.185C19.7784 21.418 19.5884 21.6066 19.3553 21.6066H14.9584C14.7253 21.6066 14.5353 21.418 14.5353 21.185C14.5353 20.9519 14.7253 20.7619 14.9584 20.7619L19.3553 20.7634Z" fill="#1C1C1C"/>
</svg>
